<svg xmlns="http://www.w3.org/2000/svg" viewBox="0 0 64 64" role="img" aria-label="Clínica Médica">
  <rect width="64" height="64" rx="18" fill="#0f766e"/>
  <path fill="#ffffff" d="M31.9 48.4c-1.3 0-2.5-.5-3.4-1.4L15.7 34.3c-5.4-5.4-5.4-14.2 0-19.6 4.4-4.4 11.3-5.3 16.2-2.1 4.9-3.2 11.8-2.3 16.2 2.1 5.4 5.4 5.4 14.2 0 19.6L35.3 47c-.9.9-2.1 1.4-3.4 1.4Z" opacity=".96"/>
  <path fill="#0f766e" d="M30 41.5c-.9 0-1.7-.5-2.1-1.3l-4.1-8.3-2 3.1c-.4.7-1.2 1.1-2 1.1H14v-4.8h4.5l3.6-5.5c.5-.7 1.3-1.1 2.1-1 .9.1 1.6.6 2 1.3l3.7 7.5 4.8-12.3c.4-.9 1.2-1.5 2.1-1.5 1 0 1.8.5 2.2 1.4l4.4 10.1H50v4.8h-8.2c-1 0-1.9-.6-2.2-1.5l-2.6-6-4.8 11.5c-.3.9-1.2 1.4-2.1 1.4H30Z"/>
</svg>
