<svg xmlns="http://www.w3.org/2000/svg" viewBox="0 0 64 64" role="img" aria-label="Clínica Veterinária">
  <rect width="64" height="64" rx="18" fill="#15803d"/>
  <path fill="#ecfdf5" d="M32 49c-7.7 0-14-4.7-14-11.1 0-5.9 5.1-10.3 14-10.3s14 4.4 14 10.3C46 44.3 39.7 49 32 49Z"/>
  <circle cx="20" cy="23" r="5" fill="#bbf7d0"/>
  <circle cx="30" cy="18" r="5" fill="#bbf7d0"/>
  <circle cx="44" cy="23" r="5" fill="#bbf7d0"/>
  <circle cx="34" cy="18" r="5" fill="#bbf7d0"/>
  <path fill="#15803d" d="M27 38a2.5 2.5 0 1 0 0-5 2.5 2.5 0 0 0 0 5Zm10 0a2.5 2.5 0 1 0 0-5 2.5 2.5 0 0 0 0 5Z"/>
</svg>
